<svg xmlns="http://www.w3.org/2000/svg" version="1.1" xmlns:xlink="http://www.w3.org/1999/xlink" width="200" height="200"><svg xmlns="http://www.w3.org/2000/svg" version="1.1" xmlns:xlink="http://www.w3.org/1999/xlink" viewBox="0 0 200 200"><rect width="200" height="200" fill="url('#gradient')"></rect><defs><linearGradient id="SvgjsLinearGradient1001" gradientTransform="rotate(45 0.5 0.5)"><stop offset="0%" stop-color="#dee90b"></stop><stop offset="100%" stop-color="#d9e241"></stop></linearGradient></defs><g><g fill="#1b3855" transform="matrix(0.9338332151180464,0,0,0.9338332151180464,8.996781133484461,105.06129789589168)" stroke="#0e5278" stroke-width="0.2"><path d="M6.85 0L1.07 0L1.07-14.22L6.18-14.22Q8.93-14.22 10.36-13.21Q11.79-12.21 11.79-10.29L11.79-10.29Q11.79-9.19 11.28-8.41Q10.77-7.63 9.79-7.26L9.79-7.26Q10.90-6.96 11.49-6.16Q12.09-5.36 12.09-4.21L12.09-4.21Q12.09-2.12 10.77-1.07Q9.44-0.02 6.85 0L6.85 0ZM6.90-6.04L4.50-6.04L4.50-2.64L6.75-2.64Q7.68-2.64 8.17-3.06Q8.67-3.49 8.67-4.26L8.67-4.26Q8.67-6.04 6.90-6.04L6.90-6.04ZM4.50-11.57L4.50-8.29L6.29-8.29Q7.41-8.30 7.89-8.70Q8.37-9.10 8.37-9.88L8.37-9.88Q8.37-10.78 7.85-11.18Q7.33-11.57 6.18-11.57L6.18-11.57L4.50-11.57ZM20.21 0L20.12-1.14Q19.07 0.20 17.29 0.20L17.29 0.20Q15.56 0.20 14.66-0.82Q13.77-1.83 13.77-3.72L13.77-3.72L13.77-10.57L17.06-10.57L17.06-3.70Q17.06-2.34 18.38-2.34L18.38-2.34Q19.51-2.34 19.99-3.15L19.99-3.15L19.99-10.57L23.30-10.57L23.30 0L20.21 0ZM24.69-5.36L24.69-5.36Q24.69-7.87 25.77-9.32Q26.86-10.76 28.80-10.76L28.80-10.76Q30.21-10.76 31.18-9.65L31.18-9.65L31.18-15L34.48-15L34.48 0L31.52 0L31.36-1.13Q30.34 0.20 28.78 0.20L28.78 0.20Q26.89 0.20 25.79-1.25Q24.69-2.70 24.69-5.36ZM27.99-5.76L27.98-5.16Q27.98-2.34 29.62-2.34L29.62-2.34Q30.71-2.34 31.18-3.26L31.18-3.26L31.18-7.29Q30.73-8.22 29.64-8.22L29.64-8.22Q28.12-8.22 27.99-5.76L27.99-5.76ZM35.97-5.24L35.97-5.36Q35.97-6.96 36.49-8.19Q37.02-9.42 38.01-10.09Q38.99-10.76 40.30-10.76L40.30-10.76Q41.95-10.76 42.88-9.65L42.88-9.65L43.00-10.57L45.99-10.57L45.99-0.40Q45.99 1.00 45.34 2.03Q44.69 3.06 43.46 3.61Q42.23 4.16 40.61 4.16L40.61 4.16Q39.44 4.16 38.35 3.72Q37.27 3.28 36.69 2.58L36.69 2.58L38.07 0.64Q38.98 1.73 40.49 1.73L40.49 1.73Q42.68 1.73 42.68-0.52L42.68-0.52L42.68-0.85Q41.73 0.20 40.28 0.20L40.28 0.20Q38.35 0.20 37.16-1.28Q35.97-2.76 35.97-5.24L35.97-5.24ZM39.27-5.16L39.27-5.16Q39.27-3.86 39.76-3.10Q40.24-2.34 41.12-2.34L41.12-2.34Q42.19-2.34 42.68-3.06L42.68-3.06L42.68-7.50Q42.20-8.22 41.14-8.22L41.14-8.22Q40.26-8.22 39.77-7.44Q39.27-6.65 39.27-5.16ZM52.97 0.20L52.97 0.20Q50.54 0.20 49.03-1.25Q47.53-2.71 47.53-5.03L47.53-5.03L47.53-5.30Q47.53-6.92 48.13-8.16Q48.73-9.40 49.88-10.08Q51.04-10.76 52.62-10.76L52.62-10.76Q54.84-10.76 56.13-9.38Q57.42-8.00 57.42-5.53L57.42-5.53L57.42-4.25L50.88-4.25Q51.05-3.36 51.65-2.85Q52.25-2.34 53.19-2.34L53.19-2.34Q54.76-2.34 55.63-3.44L55.63-3.44L57.14-1.66Q56.52-0.81 55.40-0.31Q54.27 0.20 52.97 0.20ZM52.60-8.22L52.60-8.22Q51.15-8.22 50.88-6.31L50.88-6.31L54.20-6.31L54.20-6.56Q54.22-7.35 53.80-7.79Q53.38-8.22 52.60-8.22ZM59.29-13.19L62.58-13.19L62.58-10.57L64.32-10.57L64.32-8.28L62.58-8.28L62.58-3.45Q62.58-2.85 62.79-2.62Q63.01-2.38 63.64-2.38L63.64-2.38Q64.13-2.38 64.46-2.44L64.46-2.44L64.46-0.09Q63.57 0.20 62.61 0.20L62.61 0.20Q60.91 0.20 60.10-0.61Q59.29-1.41 59.29-3.04L59.29-3.04L59.29-8.28L57.94-8.28L57.94-10.57L59.29-10.57L59.29-13.19ZM69.08-10.57L69.08 0L65.78 0L65.78-10.57L69.08-10.57ZM65.59-13.29L65.59-13.29Q65.59-13.99 66.09-14.44Q66.60-14.89 67.41-14.89Q68.22-14.89 68.73-14.44Q69.24-13.99 69.24-13.29Q69.24-12.59 68.73-12.14Q68.22-11.69 67.41-11.69Q66.60-11.69 66.09-12.14Q65.59-12.59 65.59-13.29ZM71.04-10.57L74.13-10.57L74.24-9.33Q75.33-10.76 77.26-10.76L77.26-10.76Q78.91-10.76 79.72-9.78Q80.54-8.79 80.57-6.81L80.57-6.81L80.57 0L77.27 0L77.27-6.67Q77.27-7.47 76.94-7.85Q76.62-8.22 75.77-8.22L75.77-8.22Q74.80-8.22 74.34-7.46L74.34-7.46L74.34 0L71.04 0L71.04-10.57ZM82.00-5.24L82.00-5.36Q82.00-6.96 82.53-8.19Q83.06-9.42 84.04-10.09Q85.03-10.76 86.34-10.76L86.34-10.76Q87.99-10.76 88.92-9.65L88.92-9.65L89.03-10.57L92.02-10.57L92.02-0.40Q92.02 1.00 91.37 2.03Q90.72 3.06 89.49 3.61Q88.26 4.16 86.64 4.16L86.64 4.16Q85.48 4.16 84.39 3.72Q83.30 3.28 82.72 2.58L82.72 2.58L84.10 0.64Q85.02 1.73 86.52 1.73L86.52 1.73Q88.71 1.73 88.71-0.52L88.71-0.52L88.71-0.85Q87.76 0.20 86.32 0.20L86.32 0.20Q84.38 0.20 83.19-1.28Q82.00-2.76 82.00-5.24L82.00-5.24ZM85.30-5.16L85.30-5.16Q85.30-3.86 85.79-3.10Q86.28-2.34 87.16-2.34L87.16-2.34Q88.22-2.34 88.71-3.06L88.71-3.06L88.71-7.50Q88.23-8.22 87.18-8.22L87.18-8.22Q86.30-8.22 85.80-7.44Q85.30-6.65 85.30-5.16ZM103.70 0L99.02 0L99.02-14.22L103.60-14.22Q105.49-14.22 106.99-13.36Q108.50-12.51 109.34-10.95Q110.19-9.39 110.20-7.46L110.20-7.46L110.20-6.81Q110.20-4.85 109.37-3.31Q108.54-1.76 107.05-0.88Q105.55-0.01 103.70 0L103.70 0ZM103.60-11.57L102.45-11.57L102.45-2.64L103.64-2.64Q105.12-2.64 105.91-3.69Q106.70-4.74 106.70-6.81L106.70-6.81L106.70-7.42Q106.70-9.48 105.91-10.53Q105.12-11.57 103.60-11.57L103.60-11.57ZM121.04 0L117.75 0Q117.58-0.32 117.44-0.95L117.44-0.95Q116.53 0.20 114.90 0.20L114.90 0.20Q113.41 0.20 112.36-0.71Q111.32-1.61 111.32-2.98L111.32-2.98Q111.32-4.70 112.59-5.58Q113.86-6.46 116.28-6.46L116.28-6.46L117.29-6.46L117.29-7.01Q117.29-8.47 116.04-8.47L116.04-8.47Q114.86-8.47 114.86-7.31L114.86-7.31L111.57-7.31Q111.57-8.85 112.88-9.80Q114.18-10.76 116.20-10.76Q118.22-10.76 119.39-9.78Q120.57-8.79 120.60-7.07L120.60-7.07L120.60-2.39Q120.62-0.94 121.04-0.17L121.04-0.17L121.04 0ZM115.69-2.15L115.69-2.15Q116.31-2.15 116.71-2.41Q117.12-2.68 117.29-3.01L117.29-3.01L117.29-4.70L116.34-4.70Q114.62-4.70 114.62-3.15L114.62-3.15Q114.62-2.71 114.92-2.43Q115.22-2.15 115.69-2.15ZM127.95-2.97L127.95-2.97Q127.95-3.39 127.51-3.64Q127.07-3.90 125.84-4.17Q124.61-4.44 123.81-4.89Q123.01-5.33 122.59-5.97Q122.17-6.60 122.17-7.42L122.17-7.42Q122.17-8.88 123.37-9.82Q124.57-10.76 126.51-10.76L126.51-10.76Q128.60-10.76 129.87-9.81Q131.14-8.87 131.14-7.32L131.14-7.32L127.84-7.32Q127.84-8.59 126.50-8.59L126.50-8.59Q125.99-8.59 125.63-8.31Q125.28-8.02 125.28-7.59L125.28-7.59Q125.28-7.15 125.71-6.88Q126.14-6.60 127.08-6.43Q128.03-6.25 128.74-6.01L128.74-6.01Q131.12-5.19 131.12-3.07L131.12-3.07Q131.12-1.62 129.84-0.71Q128.55 0.20 126.51 0.20L126.51 0.20Q125.16 0.20 124.09-0.29Q123.03-0.78 122.43-1.62Q121.84-2.46 121.84-3.39L121.84-3.39L124.91-3.39Q124.93-2.66 125.40-2.32Q125.87-1.98 126.60-1.98L126.60-1.98Q127.28-1.98 127.61-2.26Q127.95-2.53 127.95-2.97ZM135.88-15L135.88-9.43Q136.93-10.76 138.57-10.76L138.57-10.76Q140.32-10.76 141.21-9.73Q142.10-8.69 142.12-6.67L142.12-6.67L142.12 0L138.82 0L138.82-6.59Q138.82-7.43 138.48-7.83Q138.13-8.22 137.31-8.22L137.31-8.22Q136.30-8.22 135.88-7.58L135.88-7.58L135.88 0L132.59 0L132.59-15L135.88-15ZM153.76-5.36L153.76-5.20Q153.76-2.60 152.69-1.20Q151.61 0.20 149.66 0.20L149.66 0.20Q148.05 0.20 147.06-1.08L147.06-1.08L146.92 0L143.97 0L143.97-15L147.27-15L147.27-9.72Q148.18-10.76 149.64-10.76L149.64-10.76Q151.61-10.76 152.69-9.35Q153.76-7.93 153.76-5.36L153.76-5.36ZM150.46-5.40L150.46-5.40Q150.46-6.92 150.05-7.57Q149.65-8.22 148.81-8.22L148.81-8.22Q147.70-8.22 147.27-7.37L147.27-7.37L147.27-3.17Q147.69-2.33 148.83-2.33L148.83-2.33Q149.99-2.33 150.30-3.47L150.30-3.47Q150.46-4.02 150.46-5.40ZM154.80-4.82L154.79-5.38Q154.79-6.96 155.41-8.20Q156.03-9.43 157.18-10.10Q158.33-10.76 159.88-10.76L159.88-10.76Q162.26-10.76 163.62-9.29Q164.99-7.82 164.99-5.29L164.99-5.29L164.99-5.18Q164.99-2.71 163.62-1.25Q162.25 0.20 159.90 0.20L159.90 0.20Q157.65 0.20 156.28-1.16Q154.91-2.51 154.80-4.82L154.80-4.82ZM158.10-5.77L158.09-5.18Q158.09-3.71 158.54-3.03Q159.00-2.34 159.90-2.34L159.90-2.34Q161.66-2.34 161.70-5.05L161.70-5.05L161.70-5.38Q161.70-8.22 159.88-8.22L159.88-8.22Q158.23-8.22 158.10-5.77L158.10-5.77ZM175.68 0L172.39 0Q172.22-0.32 172.08-0.95L172.08-0.95Q171.17 0.20 169.54 0.20L169.54 0.20Q168.05 0.20 167.00-0.71Q165.96-1.61 165.96-2.98L165.96-2.98Q165.96-4.70 167.23-5.58Q168.50-6.46 170.92-6.46L170.92-6.46L171.93-6.46L171.93-7.01Q171.93-8.47 170.67-8.47L170.67-8.47Q169.50-8.47 169.50-7.31L169.50-7.31L166.21-7.31Q166.21-8.85 167.51-9.80Q168.82-10.76 170.84-10.76Q172.86-10.76 174.03-9.78Q175.21-8.79 175.23-7.07L175.23-7.07L175.23-2.39Q175.25-0.94 175.68-0.17L175.68-0.17L175.68 0ZM170.33-2.15L170.33-2.15Q170.95-2.15 171.35-2.41Q171.76-2.68 171.93-3.01L171.93-3.01L171.93-4.70L170.98-4.70Q169.26-4.70 169.26-3.15L169.26-3.15Q169.26-2.71 169.56-2.43Q169.86-2.15 170.33-2.15ZM183.51-10.64L183.45-7.59L182.36-7.67Q180.81-7.67 180.37-6.69L180.37-6.69L180.37 0L177.08 0L177.08-10.57L180.17-10.57L180.27-9.21Q181.10-10.76 182.59-10.76L182.59-10.76Q183.12-10.76 183.51-10.64L183.51-10.64ZM184.03-5.36L184.03-5.36Q184.03-7.87 185.12-9.32Q186.20-10.76 188.14-10.76L188.14-10.76Q189.56-10.76 190.53-9.65L190.53-9.65L190.53-15L193.83-15L193.83 0L190.87 0L190.70-1.13Q189.69 0.20 188.13 0.20L188.13 0.20Q186.24 0.20 185.14-1.25Q184.03-2.70 184.03-5.36ZM187.33-5.76L187.32-5.16Q187.32-2.34 188.96-2.34L188.96-2.34Q190.06-2.34 190.53-3.26L190.53-3.26L190.53-7.29Q190.08-8.22 188.98-8.22L188.98-8.22Q187.46-8.22 187.33-5.76L187.33-5.76Z"></path></g></g></svg><style>@media (prefers-color-scheme: light) { :root { filter: none; } }
@media (prefers-color-scheme: dark) { :root { filter: none; } }
</style></svg>